<svg width="18" height="18" viewBox="0 0 18 18" fill="none" xmlns="http://www.w3.org/2000/svg">
<path fill-rule="evenodd" clip-rule="evenodd" d="M0.9375 9C0.9375 4.5472 4.5472 0.9375 9 0.9375C13.4528 0.9375 17.0625 4.5472 17.0625 9C17.0625 13.4528 13.4528 17.0625 9 17.0625C4.5472 17.0625 0.9375 13.4528 0.9375 9ZM6.38994 6.38997C6.60961 6.1703 6.96577 6.1703 7.18544 6.38997L8.99985 8.20438L10.8142 6.39C11.0339 6.17033 11.3901 6.17033 11.6097 6.39C11.8294 6.60967 11.8294 6.96583 11.6097 7.1855L9.79534 8.99988L11.6101 10.8146C11.8297 11.0343 11.8297 11.3904 11.6101 11.6101C11.3904 11.8298 11.0342 11.8298 10.8146 11.6101L8.99985 9.79537L7.1851 11.6101C6.96543 11.8298 6.60928 11.8298 6.38961 11.6101C6.16994 11.3904 6.16994 11.0343 6.38961 10.8146L8.20435 8.99988L6.38994 7.18547C6.17027 6.9658 6.17027 6.60964 6.38994 6.38997Z" fill="#131315"/>
</svg>
