<svg width="57" height="56" viewBox="0 0 57 56" fill="none" xmlns="http://www.w3.org/2000/svg">
<rect x="1" y="0.5" width="55" height="55" rx="27.5" stroke="#E4E4E8"/>
<path fill-rule="evenodd" clip-rule="evenodd" d="M21.0199 20.5195C21.3128 20.2266 21.7877 20.2266 22.0806 20.5195L28.4998 26.9387L34.919 20.5195C35.2119 20.2266 35.6867 20.2266 35.9796 20.5195C36.2725 20.8124 36.2725 21.2873 35.9796 21.5802L29.5605 27.9993L35.9801 34.419C36.273 34.7119 36.273 35.1867 35.9801 35.4796C35.6872 35.7725 35.2123 35.7725 34.9194 35.4796L28.4998 29.06L22.0801 35.4797C21.7872 35.7726 21.3124 35.7726 21.0195 35.4797C20.7266 35.1868 20.7266 34.7119 21.0195 34.419L27.4391 27.9993L21.0199 21.5801C20.727 21.2872 20.727 20.8124 21.0199 20.5195Z" fill="#EF3535"/>
</svg>
