<svg width="145" height="145" viewBox="0 0 145 145" fill="none" xmlns="http://www.w3.org/2000/svg">
<path d="M74.977 68.9292H131.826V43.7906L74.977 43.7906V68.9292Z" fill="#F96000"/>
<path d="M42.3345 43.7905H36.4809L27.8461 58.3145L19.028 43.7905H13.1743V68.9292H19.7102V55.9647L26.138 66.4511H29.299L35.7718 55.5914L35.8349 68.9292H42.3708L42.3345 43.7905Z" fill="#F96000"/>
<path d="M55.2645 68.9292H62.3753V59.9754L71.9997 43.7905H65.1042L59.1164 53.7883L53.1816 43.7905H45.6401L55.2645 59.821V68.9292Z" fill="#F96000"/>
<path d="M30.6765 76.562C28.9924 75.8167 26.9957 75.4434 24.6859 75.4434H13.1743V100.704H20.3192V94.0998H24.6859C26.9957 94.0998 28.9916 93.7206 30.6765 92.963C32.36 92.2054 33.6534 91.1353 34.556 89.7512C35.4579 88.3679 35.9096 86.7019 35.9096 84.7531C35.9096 82.8043 35.4586 81.1984 34.556 79.7912C33.6541 78.384 32.3607 77.3073 30.6765 76.5613V76.562ZM27.6091 87.4784C26.863 88.1164 25.7444 88.4346 24.253 88.4346H20.3199V81.073H24.253C25.7444 81.073 26.863 81.4043 27.6091 82.0655C28.3544 82.7274 28.7277 83.6235 28.7277 84.7538C28.7277 85.8841 28.3544 86.8411 27.6091 87.4784Z" fill="#F96000"/>
<path d="M62.5043 78.6551C61.253 77.4769 59.7733 76.562 58.0659 75.9124C56.3571 75.2628 54.4931 74.938 52.4725 74.938C50.4519 74.938 48.5872 75.2628 46.8791 75.9124C45.171 76.562 43.6913 77.482 42.4407 78.6732C41.1893 79.8644 40.2091 81.2535 39.4994 82.8412C38.7896 84.429 38.4351 86.161 38.4351 88.038C38.4351 89.915 38.7896 91.6891 39.4994 93.2885C40.2091 94.8885 41.1893 96.2834 42.4407 97.4746C43.6913 98.6651 45.1768 99.5858 46.8973 100.235C48.617 100.885 50.4759 101.21 52.4725 101.21C54.4692 101.21 56.3571 100.885 58.0659 100.235C59.774 99.5858 61.2595 98.6716 62.5225 97.4927C63.7854 96.3139 64.7656 94.9248 65.4638 93.3247C66.1612 91.7254 66.51 89.9629 66.51 88.038C66.51 86.1131 66.1547 84.3934 65.4457 82.8057C64.7359 81.2179 63.755 79.8346 62.5043 78.6558V78.6551ZM58.7691 91.0511C58.4204 91.9298 57.939 92.6874 57.3257 93.3247C56.7123 93.9627 55.9902 94.4499 55.1601 94.7863C54.33 95.1234 53.4339 95.2916 52.4718 95.2916C51.5097 95.2916 50.6136 95.1234 49.7835 94.7863C48.9534 94.4499 48.2255 93.9627 47.6005 93.3247C46.9748 92.6874 46.4934 91.9298 46.157 91.0511C45.8199 90.1731 45.6517 89.1806 45.6517 88.0743C45.6517 86.9679 45.8199 85.9754 46.157 85.0974C46.4934 84.2194 46.9748 83.4618 47.6005 82.8238C48.2262 82.1865 48.9541 81.6993 49.7835 81.3622C50.6136 81.0258 51.509 80.8569 52.4718 80.8569C53.4346 80.8569 54.33 81.0258 55.1601 81.3622C55.9902 81.6993 56.7116 82.1865 57.3257 82.8238C57.939 83.4618 58.4197 84.2194 58.7691 85.0974C59.1179 85.9761 59.2926 86.9686 59.2926 88.0743C59.2926 89.1799 59.1179 90.1739 58.7691 91.0511Z" fill="#F96000"/>
<path d="M76.9232 75.4434H69.7783V100.704H76.9232V75.4434Z" fill="#F96000"/>
<path d="M99.0779 88.8965L87.963 75.4434H82.0811V100.704H89.0454V87.242L100.197 100.704H106.079V75.4434H99.0779V88.8965Z" fill="#F96000"/>
<path d="M109.2 75.4434V81.1092H116.958V100.704H124.104V81.1092H131.826V75.4434H109.2Z" fill="#F96000"/>
</svg>
