<svg width="69" height="69" viewBox="0 0 69 69" fill="none" xmlns="http://www.w3.org/2000/svg">
<path d="M35.6788 32.8008H62.731V20.8383L35.6788 20.8383V32.8008Z" fill="#FCEFDB"/>
<path d="M20.1453 20.8384H17.3598L13.2508 27.7498L9.05457 20.8384H6.26904V32.8009H9.37922V26.6316L12.438 31.6217H13.9422L17.0223 26.4539L17.0524 32.8009H20.1625L20.1453 20.8384Z" fill="#FCEFDB"/>
<path d="M26.2981 32.8009H29.6819V28.5402L34.2618 20.8384H30.9805L28.1311 25.5959L25.307 20.8384H21.7183L26.2981 28.4667V32.8009Z" fill="#FCEFDB"/>
<path d="M14.5977 36.4332C13.7963 36.0786 12.8461 35.9009 11.747 35.9009H6.26904V47.9214H9.66902V44.7788H11.747C12.8461 44.7788 13.7959 44.5983 14.5977 44.2378C15.3988 43.8773 16.0143 43.3681 16.4438 42.7095C16.873 42.0512 17.0879 41.2584 17.0879 40.331C17.0879 39.4037 16.8733 38.6395 16.4438 37.9698C16.0146 37.3002 15.3991 36.7879 14.5977 36.4329V36.4332ZM13.138 41.6279C12.783 41.9315 12.2507 42.0829 11.541 42.0829H9.66936V38.5798H11.541C12.2507 38.5798 12.783 38.7375 13.138 39.0521C13.4927 39.3671 13.6703 39.7935 13.6703 40.3314C13.6703 40.8692 13.4927 41.3246 13.138 41.6279Z" fill="#FCEFDB"/>
<path d="M29.7437 37.429C29.1482 36.8683 28.4441 36.433 27.6316 36.1238C26.8184 35.8147 25.9314 35.6602 24.9699 35.6602C24.0084 35.6602 23.1211 35.8147 22.3083 36.1238C21.4954 36.433 20.7913 36.8708 20.1962 37.4376C19.6007 38.0044 19.1343 38.6655 18.7965 39.421C18.4587 40.1766 18.29 41.0008 18.29 41.894C18.29 42.7872 18.4587 43.6314 18.7965 44.3924C19.1343 45.1539 19.6007 45.8176 20.1962 46.3845C20.7913 46.951 21.4982 47.3891 22.3169 47.6982C23.1352 48.0074 24.0198 48.1619 24.9699 48.1619C25.9201 48.1619 26.8184 48.0074 27.6316 47.6982C28.4444 47.3891 29.1513 46.9541 29.7523 46.3931C30.3533 45.8321 30.8197 45.1711 31.152 44.4097C31.4839 43.6486 31.6498 42.8099 31.6498 41.894C31.6498 40.978 31.4808 40.1596 31.1434 39.4041C30.8056 38.6485 30.3388 37.9903 29.7437 37.4293V37.429ZM27.9663 43.3278C27.8003 43.7459 27.5712 44.1064 27.2794 44.4097C26.9875 44.7133 26.6439 44.9451 26.2488 45.1052C25.8538 45.2656 25.4274 45.3457 24.9696 45.3457C24.5118 45.3457 24.0853 45.2656 23.6903 45.1052C23.2953 44.9451 22.9489 44.7133 22.6515 44.4097C22.3538 44.1064 22.1247 43.7459 21.9646 43.3278C21.8042 42.91 21.7242 42.4377 21.7242 41.9112C21.7242 41.3847 21.8042 40.9124 21.9646 40.4946C22.1247 40.0768 22.3538 39.7163 22.6515 39.4127C22.9493 39.1095 23.2956 38.8776 23.6903 38.7172C24.0853 38.5571 24.5114 38.4767 24.9696 38.4767C25.4277 38.4767 25.8538 38.5571 26.2488 38.7172C26.6439 38.8776 26.9871 39.1095 27.2794 39.4127C27.5712 39.7163 27.8 40.0768 27.9663 40.4946C28.1322 40.9128 28.2153 41.3851 28.2153 41.9112C28.2153 42.4373 28.1322 42.9103 27.9663 43.3278Z" fill="#FCEFDB"/>
<path d="M36.6051 35.9009H33.2051V47.9214H36.6051V35.9009Z" fill="#FCEFDB"/>
<path d="M47.1473 42.3027L41.8581 35.9009H39.0591V47.9214H42.3732V41.5154L47.6796 47.9214H50.4786V35.9009H47.1473V42.3027Z" fill="#FCEFDB"/>
<path d="M51.9639 35.9009V38.5971H55.6557V47.9214H59.056V38.5971H62.7306V35.9009H51.9639Z" fill="#FCEFDB"/>
</svg>
