<svg width="25" height="24" viewBox="0 0 25 24" fill="none" xmlns="http://www.w3.org/2000/svg">
<path fill-rule="evenodd" clip-rule="evenodd" d="M2.77539 6C2.77539 3.92893 4.45432 2.25 6.52539 2.25H18.5254C20.5965 2.25 22.2754 3.92893 22.2754 6V18C22.2754 20.0711 20.5965 21.75 18.5254 21.75H6.52539C4.45432 21.75 2.77539 20.0711 2.77539 18V6ZM6.52539 3.75C5.28275 3.75 4.27539 4.75736 4.27539 6V18C4.27539 19.2426 5.28275 20.25 6.52539 20.25H18.5254C19.768 20.25 20.7754 19.2426 20.7754 18V6C20.7754 4.75736 19.768 3.75 18.5254 3.75H6.52539Z" fill="#BA4902"/>
<path d="M12.5254 15.75C12.1112 15.75 11.7754 15.4142 11.7754 15L11.7754 12.75L9.52539 12.75C9.11118 12.75 8.77539 12.4142 8.77539 12C8.77539 11.5858 9.11118 11.25 9.52539 11.25L11.7754 11.25L11.7754 9C11.7754 8.58579 12.1112 8.25 12.5254 8.25C12.9396 8.25 13.2754 8.58579 13.2754 9L13.2754 11.25L15.5254 11.25C15.9396 11.25 16.2754 11.5858 16.2754 12C16.2754 12.4142 15.9396 12.75 15.5254 12.75L13.2754 12.75L13.2754 15C13.2754 15.4142 12.9396 15.75 12.5254 15.75Z" fill="#BA4902"/>
</svg>
